<?xml version="1.0" encoding="utf-8"?>
<!-- Generator: Adobe Illustrator 19.1.0, SVG Export Plug-In . SVG Version: 6.00 Build 0)  -->
<svg version="1.1" id="Layer_1" xmlns="http://www.w3.org/2000/svg" xmlns:xlink="http://www.w3.org/1999/xlink" x="0px" y="0px"
	 viewBox="0 0.5 652 283.5" style="enable-background:new 0 0.5 652 283.5;" xml:space="preserve">
<style type="text/css">
	.st0{fill:#AA004A;}
	.st1{fill:#525D75;}
</style>
<path class="st0" d="M129.5,142c5.1-3.8,10.3-7.8,15.4-11.9c27.7-22.8,29.9-46.1,30.1-59.2h-13.7c-0.2,11.4-2.2,29.8-25.1,48.6
	c-4.9,4-10,7.8-14.9,11.6c-24.1,18.2-49,37-49,76.1V219l13.7,3.6v-15.4C85.9,174.8,106.1,159.6,129.5,142z"/>
<path class="st0" d="M148.4,155.8c2.9-2.1,5.8-4.3,8.6-6.5c9.7-7.4,17.6-15.2,23.7-23.3V96c-2.5,9.2-9,24.7-32,42.4
	c-2.8,2.2-5.7,4.3-8.5,6.4c-21.8,16.2-44.4,32.9-44.4,64.7v15.7l13.7,3.6v-19.4C109.6,184.6,127.6,171.3,148.4,155.8z"/>
<path class="st0" d="M164.4,172c1.6-1.1,3.2-2.2,4.8-3.4c4.3-3,8.1-6,11.5-8.9v-18.6c-4.9,5-11.2,10.5-19.4,16.3
	c-1.6,1.1-3.2,2.2-4.8,3.3c-18.2,12.7-37,25.8-37,51.1v19.7l6.8,1.8l6.9-1.8v-19.6C133.3,193.7,147.1,184.1,164.4,172z"/>
<path class="st0" d="M177.8,190.7c1-0.7,1.9-1.4,2.9-2.1v-16.9c-2.3,1.7-4.7,3.5-7.2,5.3c-1.2,0.9-2.4,1.7-3.6,2.6
	c-14.9,10.5-26.6,18.8-26.6,35.6v13.8l13.7-3.6v-10.2C157,205.8,163,201.1,177.8,190.7z"/>
<path class="st0" d="M178.6,200.6c-7.9,5.9-11.5,8.6-11.5,16v5.9l13.7-3.6v-2.3c0-0.1,0-0.2,0-0.3c0,0,0,0,0,0V199
	C180,199.5,179.3,200.1,178.6,200.6z"/>
<path class="st0" d="M112.4,70.9l-0.9,2.6l-39.1,0v16.6c0,7.3,5.5,8.6,9.6,8.6c0,0,7.3,0,13.7,0c5,0,13.5,3.3,13.5,12.6
	c0,3.6-2.1,9.1-8.1,9.1c-6.3,0-8.6-3.3-8.9-5.2H72.4v15.3l29.5,4.1c24.9-20.6,50.3-31.4,50.3-63.8H112.4z M115,91.4V79.7l16.8,0.1
	C131.9,79.8,127.1,88.9,115,91.4z"/>
<g>
	<path class="st1" d="M205.7,109.2c-0.3,0-0.6-0.2-0.6-0.6V71.4c0-0.3,0.2-0.6,0.6-0.6h14.4c7.4,0,12.6,4.8,12.6,11.9
		c0,7.2-5.2,12-12.6,12h-8c-0.2,0-0.3,0.1-0.3,0.3v13.6c0,0.3-0.2,0.6-0.6,0.6H205.7z M226.1,82.8c0-3.5-2.4-5.9-6.4-5.9h-7.6
		c-0.2,0-0.3,0.1-0.3,0.3v11.2c0,0.2,0.1,0.3,0.3,0.3h7.6C223.7,88.7,226.1,86.3,226.1,82.8z"/>
	<path class="st1" d="M239.4,109.2c-0.3,0-0.6-0.2-0.6-0.6V82.6c0-0.3,0.2-0.6,0.6-0.6h5.2c0.3,0,0.6,0.2,0.6,0.6v2.3h0.1
		c1.3-2.1,3.6-3.5,7.1-3.5c2.1,0,4.3,0.8,5.7,2.3c0.3,0.3,0.3,0.5,0.1,0.8l-3,3.8c-0.2,0.3-0.5,0.3-0.8,0.1c-1.2-0.8-2.5-1.3-4-1.3
		c-3.6,0-5.1,2.5-5.1,6.9v14.7c0,0.3-0.2,0.6-0.6,0.6H239.4z"/>
	<path class="st1" d="M261.5,102.4c-0.6-1.9-0.9-3.7-0.9-6.7c0-3,0.3-4.8,0.9-6.7c1.5-4.7,5.7-7.5,11.2-7.5c5.5,0,9.6,2.8,11.2,7.5
		c0.6,1.9,0.9,3.7,0.9,6.7c0,3-0.3,4.8-0.9,6.7c-1.5,4.7-5.7,7.5-11.2,7.5C267.2,109.9,263.1,107.1,261.5,102.4z M277.8,100.7
		c0.5-1.4,0.6-2.7,0.6-5s-0.1-3.6-0.6-5c-0.8-2.3-2.5-3.6-5.1-3.6s-4.3,1.3-5.1,3.6c-0.5,1.5-0.6,2.7-0.6,5s0.1,3.6,0.6,5
		c0.8,2.3,2.6,3.6,5.1,3.6S277.1,102.9,277.8,100.7z"/>
	<path class="st1" d="M299,109.2c-0.4,0-0.6-0.2-0.7-0.6l-9.6-26.1c-0.1-0.3,0.1-0.6,0.5-0.6h5.5c0.3,0,0.6,0.2,0.7,0.6l6,17.7h0.1
		l5.9-17.7c0.1-0.3,0.3-0.6,0.7-0.6h5.4c0.3,0,0.6,0.2,0.5,0.6l-9.6,26.1c-0.1,0.3-0.3,0.6-0.7,0.6H299z"/>
	<path class="st1" d="M319.6,76.9c-0.3,0-0.6-0.2-0.6-0.6v-4.9c0-0.3,0.2-0.6,0.6-0.6h5.2c0.3,0,0.6,0.2,0.6,0.6v4.9
		c0,0.3-0.2,0.6-0.6,0.6H319.6z M319.6,109.2c-0.3,0-0.6-0.2-0.6-0.6V82.6c0-0.3,0.2-0.6,0.6-0.6h5.2c0.3,0,0.6,0.2,0.6,0.6v26.1
		c0,0.3-0.2,0.6-0.6,0.6H319.6z"/>
	<path class="st1" d="M350.8,109.2c-0.3,0-0.6-0.2-0.6-0.6V93c0-3.5-1.7-5.9-5.1-5.9c-3.3,0-5.2,2.4-5.2,5.9v15.7
		c0,0.3-0.2,0.6-0.6,0.6h-5.2c-0.3,0-0.6-0.2-0.6-0.6V82.6c0-0.3,0.2-0.6,0.6-0.6h5.2c0.3,0,0.6,0.2,0.6,0.6v2h0.1
		c1.2-1.7,3.6-3.2,7.2-3.2c5.8,0,9.4,4.3,9.4,10.1v17.2c0,0.3-0.2,0.6-0.6,0.6H350.8z"/>
	<path class="st1" d="M363.9,102.4c-0.6-1.7-0.8-3.8-0.8-6.7c0-2.9,0.3-5,0.8-6.7c1.6-4.9,5.8-7.5,11.2-7.5c4.1,0,7.3,1.6,9.4,4.2
		c0.2,0.2,0.2,0.6-0.1,0.8l-3.6,3.1c-0.3,0.2-0.6,0.2-0.8-0.1c-1.4-1.5-2.8-2.4-5-2.4c-2.4,0-4.3,1.2-5.1,3.6
		c-0.5,1.4-0.6,2.9-0.6,5c0,2.1,0.1,3.7,0.6,5.1c0.8,2.3,2.7,3.5,5.1,3.5c2.3,0,3.7-0.8,5-2.4c0.2-0.3,0.5-0.3,0.8-0.1l3.6,3.1
		c0.3,0.2,0.2,0.5,0.1,0.8c-2.1,2.5-5.4,4.2-9.4,4.2C369.6,109.9,365.5,107.2,363.9,102.4z"/>
	<path class="st1" d="M391.9,76.9c-0.3,0-0.6-0.2-0.6-0.6v-4.9c0-0.3,0.2-0.6,0.6-0.6h5.2c0.3,0,0.6,0.2,0.6,0.6v4.9
		c0,0.3-0.2,0.6-0.6,0.6H391.9z M391.9,109.2c-0.3,0-0.6-0.2-0.6-0.6V82.6c0-0.3,0.2-0.6,0.6-0.6h5.2c0.3,0,0.6,0.2,0.6,0.6v26.1
		c0,0.3-0.2,0.6-0.6,0.6H391.9z"/>
	<path class="st1" d="M405.4,102.3c-0.6-1.7-1-3.8-1-6.7c0-2.8,0.3-5,0.9-6.7c1.5-4.7,5.7-7.5,11.1-7.5c5.6,0,9.6,2.9,11.2,7.5
		c0.6,1.9,0.9,3.8,0.9,8.2c0,0.3-0.2,0.6-0.6,0.6h-16.8c-0.2,0-0.3,0.1-0.3,0.3c0,0.8,0.2,1.5,0.4,2.1c0.9,2.7,3,4.1,6.1,4.1
		c3,0,5-1.1,6.4-2.6c0.3-0.3,0.6-0.3,0.8-0.1l3.3,2.9c0.3,0.2,0.3,0.5,0.1,0.8c-2.3,2.7-6.2,4.6-11.2,4.6
		C410.9,109.9,406.9,107,405.4,102.3z M421.8,90.3c-0.7-2.2-2.8-3.5-5.3-3.5c-2.6,0-4.6,1.3-5.4,3.5c-0.2,0.7-0.3,1.4-0.3,2.3
		c0,0.2,0.1,0.3,0.3,0.3h10.7c0.2,0,0.3-0.1,0.3-0.3C422.1,91.6,422,91,421.8,90.3z"/>
</g>
<g>
	<path class="st1" d="M205,199.1c-0.7,0-1.1-0.5-1.1-1.1v-9.7c0-0.5,0.1-0.8,0.3-1.2l34.6-52.4v-0.2h-32.6c-0.7,0-1.1-0.5-1.1-1.1
		v-9.7c0-0.7,0.5-1.1,1.1-1.1h46.5c0.7,0,1.1,0.5,1.1,1.1v9.7c0,0.5-0.1,0.8-0.3,1.1l-34.6,52.5v0.2h33.8c0.7,0,1.1,0.5,1.1,1.1v9.7
		c0,0.7-0.5,1.1-1.1,1.1H205z"/>
	<path class="st1" d="M264,185.2c-1.1-3.5-1.9-7.7-1.9-13.3c0-5.6,0.7-9.9,1.8-13.4c3-9.5,11.4-15,22.2-15c11.2,0,19.3,5.8,22.3,15
		c1.2,3.8,1.8,7.6,1.8,16.4c0,0.7-0.5,1.1-1.2,1.1h-33.5c-0.5,0-0.7,0.2-0.7,0.7c0,1.6,0.3,2.9,0.8,4.2c1.8,5.3,6.1,8.2,12.2,8.2
		c6.1,0,10-2.3,12.7-5.2c0.6-0.6,1.1-0.7,1.7-0.2l6.7,5.9c0.6,0.5,0.6,1,0.1,1.6c-4.6,5.4-12.3,9.2-22.3,9.2
		C275.2,200.3,267,194.7,264,185.2z M296.8,161.2c-1.5-4.4-5.5-7-10.6-7c-5.2,0-9.2,2.6-10.7,7c-0.5,1.4-0.7,2.7-0.7,4.6
		c0,0.5,0.2,0.7,0.7,0.7h21.3c0.5,0,0.7-0.2,0.7-0.7C297.5,163.9,297.3,162.6,296.8,161.2z"/>
	<path class="st1" d="M322.7,185.2c-1.1-3.5-1.9-7.7-1.9-13.3c0-5.6,0.7-9.9,1.8-13.4c3-9.5,11.4-15,22.2-15
		c11.2,0,19.3,5.8,22.3,15c1.2,3.8,1.8,7.6,1.8,16.4c0,0.7-0.5,1.1-1.2,1.1h-33.5c-0.5,0-0.7,0.2-0.7,0.7c0,1.6,0.3,2.9,0.8,4.2
		c1.8,5.3,6.1,8.2,12.2,8.2c6.1,0,10-2.3,12.7-5.2c0.6-0.6,1.1-0.7,1.7-0.2l6.7,5.9c0.6,0.5,0.6,1,0.1,1.6
		c-4.6,5.4-12.3,9.2-22.3,9.2C333.9,200.3,325.8,194.7,322.7,185.2z M355.6,161.2c-1.5-4.4-5.5-7-10.6-7c-5.2,0-9.2,2.6-10.7,7
		c-0.5,1.4-0.7,2.7-0.7,4.6c0,0.5,0.2,0.7,0.7,0.7h21.3c0.5,0,0.7-0.2,0.7-0.7C356.2,163.9,356,162.6,355.6,161.2z"/>
	<path class="st1" d="M397.2,199.8c-10.6,0-14.9-5.1-14.9-15.6v-60.7c0-0.7,0.5-1.1,1.1-1.1h10.4c0.7,0,1.1,0.5,1.1,1.1v60
		c0,3.7,1.5,5,4.7,5h2.5c0.7,0,1.1,0.5,1.1,1.1v9c0,0.7-0.5,1.1-1.1,1.1H397.2z"/>
	<path class="st1" d="M447.7,199.1c-0.7,0-1.1-0.5-1.1-1.1V194h-0.1c-2.6,3.7-7.7,6.3-15.3,6.3c-9.9,0-18.3-5.2-18.3-16.6
		c0-11.8,8.3-17.3,21.8-17.3h11.1c0.5,0,0.7-0.2,0.7-0.7v-2.6c0-6.2-2.9-9-12.1-9c-6.1,0-9.8,1.7-12.4,3.7c-0.6,0.5-1.2,0.3-1.6-0.2
		l-4.2-7.4c-0.3-0.6-0.2-1.1,0.2-1.5c4.4-3.2,10.4-5.3,19.3-5.3c16.6,0,22.7,5.6,22.7,18.9V198c0,0.7-0.5,1.1-1.1,1.1H447.7z
		 M446.3,180.8v-4.2c0-0.5-0.2-0.7-0.7-0.7h-9c-8.1,0-11.7,2.3-11.7,7.3c0,4.5,3.3,6.8,9.4,6.8C442,190.1,446.3,187,446.3,180.8z"/>
	<path class="st1" d="M508.7,199.1c-0.7,0-1.1-0.5-1.1-1.1v-31.3c0-7-3.5-11.8-10.3-11.8c-6.5,0-10.4,4.8-10.4,11.8V198
		c0,0.7-0.5,1.1-1.1,1.1h-10.4c-0.7,0-1.1-0.5-1.1-1.1v-52.1c0-0.7,0.5-1.1,1.1-1.1h10.4c0.7,0,1.1,0.5,1.1,1.1v3.9h0.1
		c2.4-3.4,7.1-6.3,14.3-6.3c11.6,0,18.8,8.6,18.8,20.2V198c0,0.7-0.5,1.1-1.1,1.1H508.7z"/>
	<path class="st1" d="M569.6,199.1c-0.7,0-1.1-0.5-1.1-1.1v-4.1h-0.1c-2.6,3.7-7.1,6.4-14.4,6.4c-9.2,0-16-4.4-18.8-13.1
		c-1.4-4.2-1.9-8-1.9-15.3c0-7.3,0.6-11.2,1.9-15.3c2.8-8.7,9.6-13.1,18.8-13.1c7.3,0,11.8,2.7,14.4,6.4h0.1v-26.4
		c0-0.7,0.5-1.1,1.1-1.1H580c0.7,0,1.1,0.5,1.1,1.1V198c0,0.7-0.5,1.1-1.1,1.1H569.6z M567.3,182.1c0.8-2.5,1.1-5.2,1.1-10.1
		c0-5-0.3-7.7-1.1-10.1c-1.5-4.5-5-7-10.1-7c-5.1,0-8.6,2.5-10,7c-0.8,2.5-1.1,5.2-1.1,10.1c0,5,0.3,7.7,1.1,10.1c1.5,4.5,5,7,10,7
		C562.4,189.1,565.9,186.6,567.3,182.1z"/>
</g>
<g>
	<path class="st0" d="M101.1,114.5c-1.7,0-2.7-1.2-3.1-3c-0.2-0.7-0.9-1.5-2.4-1.5l-1.7,0L74,110c-15.1,0-18-10.3-18.6-15.7
		c-0.2-1.7,1-3.1,2.7-3.3c1.6-0.2,3,1,3.3,2.7c0.2,1.1,1.5,10.2,12.6,10.2h19.8c0.9-0.1,5.4-0.2,8.1,2.4c1.4,1.3,2,2.8,2.1,5
		C104.1,112.9,102.7,114.5,101.1,114.5z"/>
</g>
</svg>
